{
  "accessors": [
    {
      "bufferView": 2,
      "componentType": 5126,
      "count": 24,
      "max": [15.597311019897461, 1.9732500314712524, 39.687713623046875],
      "min": [-2.152616024017334, -0.98949098587036133, 38.687713623046875],
      "type": "VEC3"
    },
    {
      "bufferView": 2,
      "byteOffset": 288,
      "componentType": 5126,
      "count": 24,
      "max": [1, 1, 1],
      "min": [-1, -1, -1],
      "type": "VEC3"
    },
    {
      "bufferView": 1,
      "componentType": 5126,
      "count": 24,
      "max": [0.58730798959732056, 0.99800801277160645],
      "min": [0.001171999960206449, 0.0019920000340789557],
      "type": "VEC2"
    },
    {
      "bufferView": 0,
      "componentType": 5125,
      "count": 36,
      "max": [23],
      "min": [0],
      "type": "SCALAR"
    },
    {
      "bufferView": 2,
      "byteOffset": 576,
      "componentType": 5126,
      "count": 316,
      "max": [-19.556674957275391, 0.8652610182762146, 41.009334564208984],
      "min": [-30.194231033325195, -1.2418769598007202, 38.616233825683594],
      "type": "VEC3"
    },
    {
      "bufferView": 2,
      "byteOffset": 4368,
      "componentType": 5126,
      "count": 316,
      "max": [1, 1, 1],
      "min": [-1, -1, -1],
      "type": "VEC3"
    },
    {
      "bufferView": 1,
      "byteOffset": 192,
      "componentType": 5126,
      "count": 316,
      "max": [0.58793097734451294, 0.57589501142501831],
      "min": [0.35219401121139526, 0.31777000427246094],
      "type": "VEC2"
    },
    {
      "bufferView": 0,
      "byteOffset": 144,
      "componentType": 5125,
      "count": 960,
      "max": [315],
      "min": [0],
      "type": "SCALAR"
    },
    {
      "bufferView": 2,
      "byteOffset": 8160,
      "componentType": 5126,
      "count": 1597,
      "max": [34.854942321777344, 2.2885069847106934, 40.62860107421875],
      "min": [-35.012149810791016, -2.2885069847106934, 0.35752800107002258],
      "type": "VEC3"
    },
    {
      "bufferView": 2,
      "byteOffset": 27324,
      "componentType": 5126,
      "count": 1597,
      "max": [1, 1, 1],
      "min": [-1, -1, -1],
      "type": "VEC3"
    },
    {
      "bufferView": 1,
      "byteOffset": 2720,
      "componentType": 5126,
      "count": 1597,
      "max": [0.98566502332687378, 0.98344498872756958],
      "min": [0.023207999765872955, 0.021577000617980957],
      "type": "VEC2"
    },
    {
      "bufferView": 0,
      "byteOffset": 3984,
      "componentType": 5125,
      "count": 6042,
      "max": [1596],
      "min": [0],
      "type": "SCALAR"
    },
    {
      "bufferView": 2,
      "byteOffset": 46488,
      "componentType": 5126,
      "count": 4722,
      "max": [48.744728088378906, 4.9879798889160156, 41.730430603027344],
      "min": [-48.762031555175781, -4.5952239036560059, 10.007829666137695],
      "type": "VEC3"
    },
    {
      "bufferView": 2,
      "byteOffset": 103152,
      "componentType": 5126,
      "count": 4722,
      "max": [1, 1, 1],
      "min": [-1, -1, -1],
      "type": "VEC3"
    },
    {
      "bufferView": 1,
      "byteOffset": 15496,
      "componentType": 5126,
      "count": 4722,
      "max": [1, 1],
      "min": [0, 0],
      "type": "VEC2"
    },
    {
      "bufferView": 0,
      "byteOffset": 28152,
      "componentType": 5125,
      "count": 13140,
      "max": [4721],
      "min": [0],
      "type": "SCALAR"
    },
    {
      "bufferView": 2,
      "byteOffset": 159816,
      "componentType": 5126,
      "count": 561,
      "max": [48.591899871826172, 5.4077839851379395, 40.77215576171875],
      "min": [35.140602111816406, -2.2885000705718994, 0.35749998688697815],
      "type": "VEC3"
    },
    {
      "bufferView": 2,
      "byteOffset": 166548,
      "componentType": 5126,
      "count": 561,
      "max": [1, 1, 0.99999988079071045],
      "min": [-1, -1, -0.99996674060821533],
      "type": "VEC3"
    },
    {
      "bufferView": 1,
      "byteOffset": 53272,
      "componentType": 5126,
      "count": 561,
      "max": [1, 1],
      "min": [0, 0],
      "type": "VEC2"
    },
    {
      "bufferView": 0,
      "byteOffset": 80712,
      "componentType": 5125,
      "count": 2208,
      "max": [560],
      "min": [0],
      "type": "SCALAR"
    },
    {
      "bufferView": 2,
      "byteOffset": 173280,
      "componentType": 5126,
      "count": 597,
      "max": [-35.014041900634766, 5.4077839851379395, 40.77215576171875],
      "min": [-48.46533203125, -2.2885000705718994, 0.35749998688697815],
      "type": "VEC3"
    },
    {
      "bufferView": 2,
      "byteOffset": 180444,
      "componentType": 5126,
      "count": 597,
      "max": [1, 1, 0.99999988079071045],
      "min": [-1, -1, -0.99998152256011963],
      "type": "VEC3"
    },
    {
      "bufferView": 1,
      "byteOffset": 57760,
      "componentType": 5126,
      "count": 597,
      "max": [0.92071199417114258, 0.99800801277160645],
      "min": [0.0018380000256001949, 0.0019920000340789557],
      "type": "VEC2"
    },
    {
      "bufferView": 0,
      "byteOffset": 89544,
      "componentType": 5125,
      "count": 2328,
      "max": [596],
      "min": [0],
      "type": "SCALAR"
    }
  ],
  "asset": {
    "extras": {
      "author": "SalvaVelarte (https://sketchfab.com/SalvaVelarte)",
      "license": "CC-BY-4.0 (http://creativecommons.org/licenses/by/4.0/)",
      "source": "https://sketchfab.com/3d-models/nintendo-switch-19d52d793b8a47ef949c44e7879827e2",
      "title": "Nintendo Switch"
    },
    "generator": "Sketchfab-8.7.0",
    "version": "2.0"
  },
  "bufferViews": [
    {
      "buffer": 0,
      "byteLength": 98856,
      "byteOffset": 0,
      "name": "floatBufferViews",
      "target": 34963
    },
    {
      "buffer": 0,
      "byteLength": 62536,
      "byteOffset": 98856,
      "byteStride": 8,
      "name": "floatBufferViews",
      "target": 34962
    },
    {
      "buffer": 0,
      "byteLength": 187608,
      "byteOffset": 161392,
      "byteStride": 12,
      "name": "floatBufferViews",
      "target": 34962
    }
  ],
  "buffers": [
    {
      "byteLength": 349000,
      "uri": "scene.bin"
    }
  ],
  "images": [
    {
      "uri": "textures/aiStandardSurface1SG_baseColor.png"
    },
    {
      "uri": "textures/aiStandardSurface3SG_baseColor.png"
    },
    {
      "uri": "textures/aiStandardSurface3SG2_baseColor.png"
    }
  ],
  "materials": [
    {
      "doubleSided": true,
      "name": "Volume_Rocker",
      "pbrMetallicRoughness": {
        "baseColorFactor": [1, 1, 1, 1],
        "baseColorTexture": {
          "index": 0,
          "texCoord": 0
        },
        "metallicFactor": 0,
        "roughnessFactor": 0.59999999999999998
      }
    },
    {
      "doubleSided": true,
      "name": "Screen_Bezel",
      "pbrMetallicRoughness": {
        "baseColorFactor": [1, 1, 1, 1],
        "baseColorTexture": {
          "index": 1,
          "texCoord": 0
        },
        "metallicFactor": 0,
        "roughnessFactor": 0.59999999999999998
      }
    },
    {
      "doubleSided": true,
      "name": "Bumper_and_Buttons",
      "pbrMetallicRoughness": {
        "baseColorFactor": [1, 1, 1, 1],
        "baseColorTexture": {
          "index": 0,
          "texCoord": 0
        },
        "metallicFactor": 0,
        "roughnessFactor": 0.59999999999999998
      }
    },

    {
      "doubleSided": true,
      "name": "Right_Joycon",
      "pbrMetallicRoughness": {
        "baseColorFactor": [
          0.8556051858, 0.058608605799999998, 0.058608605799999998, 1
        ],
        "metallicFactor": 0,
        "roughnessFactor": 0.59999999999999998
      }
    },
    {
      "doubleSided": true,
      "name": "Left_Joycon",
      "pbrMetallicRoughness": {
        "baseColorFactor": [
          0.040406349300000005, 0.38431160019999994, 0.74943454240000007, 1
        ],
        "metallicFactor": 0,
        "roughnessFactor": 0.59999999999999998
      }
    }
  ],
  "meshes": [
    {
      "primitives": [
        {
          "attributes": {
            "NORMAL": 1,
            "POSITION": 0,
            "TEXCOORD_0": 2
          },
          "indices": 3,
          "material": 3,
          "mode": 4
        }
      ]
    },
    {
      "primitives": [
        {
          "attributes": {
            "NORMAL": 5,
            "POSITION": 4,
            "TEXCOORD_0": 6
          },
          "indices": 7,
          "material": 0,
          "mode": 4
        }
      ]
    },
    {
      "primitives": [
        {
          "attributes": {
            "NORMAL": 9,
            "POSITION": 8,
            "TEXCOORD_0": 10
          },
          "indices": 11,
          "material": 1,
          "mode": 4
        }
      ]
    },
    {
      "primitives": [
        {
          "attributes": {
            "NORMAL": 13,
            "POSITION": 12,
            "TEXCOORD_0": 14
          },
          "indices": 15,
          "material": 2,
          "mode": 4
        }
      ]
    },
    {
      "primitives": [
        {
          "attributes": {
            "NORMAL": 17,
            "POSITION": 16,
            "TEXCOORD_0": 18
          },
          "indices": 19,
          "material": 4,
          "mode": 4
        }
      ]
    },
    {
      "primitives": [
        {
          "attributes": {
            "NORMAL": 21,
            "POSITION": 20,
            "TEXCOORD_0": 22
          },
          "indices": 23,
          "material": 4,
          "mode": 4
        }
      ]
    }
  ],
  "nodes": [
    {
      "children": [1],
      "name": "RootNode (gltf orientation matrix)",
      "rotation": [-0.70710678118654746, -0, -0, 0.70710678118654757]
    },
    {
      "children": [2],
      "name": "RootNode (model correction matrix)"
    },
    {
      "children": [3, 4, 5, 6, 7, 8],
      "name": "SwitchFinal.obj.cleaner.materialmerger.gles"
    },
    {
      "mesh": 0,
      "name": ""
    },
    {
      "mesh": 1,
      "name": ""
    },
    {
      "mesh": 2,
      "name": ""
    },
    {
      "mesh": 3,
      "name": ""
    },
    {
      "mesh": 4,
      "name": ""
    },
    {
      "mesh": 5,
      "name": ""
    }
  ],
  "samplers": [
    {
      "magFilter": 9729,
      "minFilter": 9987,
      "wrapS": 10497,
      "wrapT": 10497
    }
  ],
  "scene": 0,
  "scenes": [
    {
      "name": "OSG_Scene",
      "nodes": [0]
    }
  ],
  "textures": [
    {
      "sampler": 0,
      "source": 0
    },
    {
      "sampler": 0,
      "source": 1
    },
    {
      "sampler": 0,
      "source": 2
    }
  ]
}
